<?xml version="1.0" encoding="UTF-8" standalone="no"?>
<!-- Generator: Adobe Illustrator 19.0.0, SVG Export Plug-In . SVG Version: 6.00 Build 0)  -->

<svg
   version="1.1"
   id="Capa_1"
   x="0px"
   y="0px"
   viewBox="0 0 512 512"
   style="enable-background:new 0 0 512 512;"
   xml:space="preserve"
   sodipodi:docname="affiliate.svg"
   inkscape:version="1.1 (c68e22c387, 2021-05-23)"
   xmlns:inkscape="http://www.inkscape.org/namespaces/inkscape"
   xmlns:sodipodi="http://sodipodi.sourceforge.net/DTD/sodipodi-0.dtd"
   xmlns="http://www.w3.org/2000/svg"
   xmlns:svg="http://www.w3.org/2000/svg"><defs
   id="defs47" /><sodipodi:namedview
   id="namedview45"
   pagecolor="#ffffff"
   bordercolor="#666666"
   borderopacity="1.0"
   inkscape:pageshadow="2"
   inkscape:pageopacity="0.0"
   inkscape:pagecheckerboard="0"
   showgrid="false"
   inkscape:zoom="1.7050781"
   inkscape:cx="140.46277"
   inkscape:cy="256"
   inkscape:window-width="2560"
   inkscape:window-height="1377"
   inkscape:window-x="-8"
   inkscape:window-y="-8"
   inkscape:window-maximized="1"
   inkscape:current-layer="Capa_1" />
<g
   id="g6">
	<g
   id="g4">
		<path
   d="M467,211c-19.53,0-36.024,12.578-42.237,30h-35.279c-2.915-25.908-12.984-49.429-28.477-68.796l24.419-24.419    c19.273,9.087,38.391,4.031,50.881-8.459c17.549-17.549,17.549-46.084,0-63.633s-46.084-17.549-63.633,0    c-13.79,13.79-16.34,34.186-8.459,50.881l-24.419,24.419C320.429,135.5,296.908,125.431,271,122.516V87.237    C288.422,81.024,301,64.53,301,45c0-24.814-20.186-45-45-45c-24.814,0-45,20.186-45,45c0,19.53,12.578,36.024,30,42.237v35.279    c-25.908,2.915-49.429,12.984-68.796,28.477l-24.419-24.419c7.881-16.696,5.33-37.092-8.459-50.881    c-17.549-17.549-46.084-17.549-63.633,0c-17.549,17.549-17.549,46.084,0,63.633c12.49,12.49,31.609,17.546,50.881,8.459    l24.419,24.419C135.5,191.571,125.431,215.092,122.516,241H87.237C81.024,223.578,64.53,211,45,211c-24.814,0-45,20.186-45,45    c0,24.814,20.186,45,45,45c19.53,0,36.024-12.578,42.237-30h35.279c2.915,25.908,12.984,49.429,28.477,68.796l-24.419,24.419    c-16.696-7.879-37.094-5.328-50.881,8.459c-17.549,17.549-17.549,46.084,0,63.633s46.083,17.549,63.633,0    c13.788-13.788,16.339-34.186,8.459-50.881l24.419-24.419c19.367,15.493,42.889,25.562,68.796,28.477v35.279    c-17.422,6.213-30,22.707-30,42.237c0,24.814,20.186,45,45,45c24.814,0,45-20.186,45-45c0-19.53-12.578-36.024-30-42.237v-35.279    c25.908-2.915,49.429-12.984,68.796-28.477l24.419,24.419c-7.879,16.696-5.328,37.094,8.459,50.881    c17.549,17.549,46.083,17.549,63.633,0c17.549-17.549,17.549-46.084,0-63.633c-13.79-13.79-34.186-16.34-50.881-8.459    l-24.419-24.419c15.493-19.367,25.562-42.889,28.477-68.796h35.279c6.213,17.422,22.707,30,42.237,30c24.814,0,45-20.186,45-45    C512,231.186,491.814,211,467,211z M320.501,338.2C306.755,314.147,281.563,301,256,301c-25.454,0-48.256,10.932-64.2,37.5    c-8.099-6.301-15.599-13.801-21.599-22.2c13.102-15.725,16.796-23.612,41.4-35.4C202,270.399,196,256.3,196,241    c0-32.999,27.001-60,60-60c32.999,0,60,27.001,60,60c0,15.3-6,29.399-15.601,39.901c16.196,7.534,31.642,19.768,41.4,35.099    C336.099,324.401,328.599,331.601,320.501,338.2z"
   id="path2"
   style="stroke:none;stroke-opacity:1;fill:#b8add2;fill-opacity:1" />
	</g>
</g>
<g
   id="g12"
   style="fill:#b8add2;fill-opacity:1">
	<g
   id="g10"
   style="fill:#b8add2;fill-opacity:1">
		<path
   d="M256,211c-16.5,0-30,13.5-30,30s13.5,30,30,30s30-13.5,30-30S272.5,211,256,211z"
   id="path8"
   style="fill:#b8add2;fill-opacity:1" />
	</g>
</g>
<g
   id="g14">
</g>
<g
   id="g16">
</g>
<g
   id="g18">
</g>
<g
   id="g20">
</g>
<g
   id="g22">
</g>
<g
   id="g24">
</g>
<g
   id="g26">
</g>
<g
   id="g28">
</g>
<g
   id="g30">
</g>
<g
   id="g32">
</g>
<g
   id="g34">
</g>
<g
   id="g36">
</g>
<g
   id="g38">
</g>
<g
   id="g40">
</g>
<g
   id="g42">
</g>
</svg>
