<?xml version="1.0" encoding="UTF-8" standalone="no"?>
<svg
   width="295"
   height="295"
   viewBox="0 0 295 295"
   version="1.1"
   id="svg12"
   sodipodi:docname="coingecko.svg"
   inkscape:version="1.1 (c68e22c387, 2021-05-23)"
   xmlns:inkscape="http://www.inkscape.org/namespaces/inkscape"
   xmlns:sodipodi="http://sodipodi.sourceforge.net/DTD/sodipodi-0.dtd"
   xmlns="http://www.w3.org/2000/svg"
   xmlns:svg="http://www.w3.org/2000/svg">
  <defs
     id="defs16" />
  <sodipodi:namedview
     id="namedview14"
     pagecolor="#ffffff"
     bordercolor="#666666"
     borderopacity="1.0"
     inkscape:pageshadow="2"
     inkscape:pageopacity="0.0"
     inkscape:pagecheckerboard="0"
     showgrid="false"
     inkscape:zoom="2.959322"
     inkscape:cx="116.07388"
     inkscape:cy="147.5"
     inkscape:window-width="2560"
     inkscape:window-height="1377"
     inkscape:window-x="1912"
     inkscape:window-y="-8"
     inkscape:window-maximized="1"
     inkscape:current-layer="coingecko" />
  <g
     id="coingecko"
     transform="translate(9.499 10.501)">
    <path
       id="Path_36"
       data-name="Path 36"
       d="M174.35,64.27a70.18,70.18,0,0,1,24.53,0,74.66,74.66,0,0,1,23.43,7.85c7.28,4,13.57,9.43,19.83,14.52s12.49,10.3,18.42,16a93.381,93.381,0,0,1,15.71,19,108.069,108.069,0,0,1,11,22.17c5.33,15.66,7.18,32.53,4.52,48.62H291c-2.67-15.95-6.29-31.15-12-45.61a178.006,178.006,0,0,0-9.44-21.25,208.8,208.8,0,0,0-12.42-19.93,72.3,72.3,0,0,0-16.64-16.8c-6.48-4.62-13.93-7.61-21.14-10.45S205,72.61,197.48,70.45s-15.16-3.78-23.14-5.35Z"
       transform="translate(-34 -45.61)"
       fill="none" />
    <g
       id="g2453">
      <g
         id="g1808">
        <path
           id="Path_34"
           data-name="Path 34"
           d="M 310,183 A 138,138 0 1 1 171.4,45.61 138,138 0 0 1 310,183 Z"
           transform="translate(-34 -46.61)"
           fill="none"
           stroke="#77838f"
           stroke-width="19"
           style="stroke:#fffffd;stroke-opacity:1" />
        <path
           id="Path_37"
           data-name="Path 37"
           d="m 236.74,138 c -9.26,-2.68 -18.86,-6.48 -28.58,-10.32 -0.56,-2.44 -2.72,-5.48 -7.09,-9.19 -6.35,-5.51 -18.28,-5.37 -28.59,-2.93 -11.38,-2.68 -22.62,-3.63 -33.41,-1 -88.25,24.31 -38.21,83.62 -70.61,143.24 4.61,9.78 54.3,66.84 126.2,51.53 0,0 -24.59,-59.09 30.9,-87.45 45.01,-23.09 77.53,-65.81 11.18,-83.88 z"
           fill="#77838f"
           transform="translate(-34 -45.61)"
           style="fill:#ffffff;fill-opacity:1" />
        <path
           id="Path_42"
           data-name="Path 42"
           d="m 267.63,187.69 c -20,14.09 -42.74,24.78 -75,24.78 -15.1,0 -18.16,-16 -28.14,-8.18 -5.15,4.06 -23.31,13.14 -37.72,12.45 -14.41,-0.69 -37.77,-9.14 -44.28,-39.9 -2.58,30.76 -3.9,53.42 -15.45,79.39 23,36.83 77.84,65.24 127.62,53 -5.35,-37.35 27.29,-73.93 45.68,-92.65 7,-7.09 20.3,-18.66 27.29,-28.91 z"
           transform="translate(-34 -45.61)"
           fill="#77838f"
           style="fill:#ffffff;fill-opacity:1" />
      </g>
      <path
         id="Path_39"
         data-name="Path 39"
         d="m 172.48,115.52 c 6.43,0.46 29.68,8 35.68,12.12 -5,-14.5 -21.83,-16.43 -35.68,-12.12 z"
         transform="translate(-34 -45.61)"
         fill="#77838f"
         style="fill:#ffffff;fill-opacity:1" />
    </g>
    <path
       id="Path_38"
       data-name="Path 38"
       d="m 213.63998,132.37609 a 6.5327033,6.5327033 0 1 1 -6.56933,-6.49607 6.5327033,6.5327033 0 0 1 6.56933,6.49607 z"
       fill="#9faab5"
       style="fill:#1f2641;fill-opacity:1;stroke-width:1.22107" />
    <path
       id="Path_40"
       data-name="Path 40"
       d="M 140.16056,106.58388 A 20.242636,20.242636 0 1 1 119.92039,86.349443 20.242636,20.242636 0 0 1 140.16056,106.58388 Z"
       fill="#9faab5"
       style="fill:#465692;fill-opacity:1;stroke:#1f2641;stroke-width:7.041;stroke-miterlimit:4;stroke-dasharray:none;stroke-opacity:1" />
    <path
       id="Path_43"
       data-name="Path 43"
       d="m 232.85,143 c -6.21,5.66 -13.6,9.85 -21.12,13.55 a 134.24,134.24 0 0 1 -23.7,8.63 c -8.16,2.11 -16.67,3.7 -25.29,2.92 -8.62,-0.78 -17.43,-3.71 -23.14,-10.17 l 0.27,-0.31 c 7,4.54 15.08,6.14 23.12,6.37 a 108.569,108.569 0 0 0 24.3,-2 132.339,132.339 0 0 0 23.61,-7.3 c 7.63,-3.15 15.18,-6.8 21.68,-12 z"
       fill="#9faab5"
       style="fill:#1f2641;fill-opacity:1" />
  </g>
</svg>
