<?xml version="1.0" encoding="UTF-8" standalone="no"?>
<svg
   height="300px"
   width="300px"
   fill="#000000"
   version="1.1"
   x="0px"
   y="0px"
   viewBox="0 0 100 100"
   enable-background="new 0 0 100 100"
   xml:space="preserve"
   id="svg10"
   sodipodi:docname="vault.svg"
   inkscape:version="1.1 (c68e22c387, 2021-05-23)"
   xmlns:inkscape="http://www.inkscape.org/namespaces/inkscape"
   xmlns:sodipodi="http://sodipodi.sourceforge.net/DTD/sodipodi-0.dtd"
   xmlns="http://www.w3.org/2000/svg"
   xmlns:svg="http://www.w3.org/2000/svg"><defs
     id="defs14" /><sodipodi:namedview
     id="namedview12"
     pagecolor="#505050"
     bordercolor="#ffffff"
     borderopacity="1"
     inkscape:pageshadow="0"
     inkscape:pageopacity="0"
     inkscape:pagecheckerboard="1"
     showgrid="false"
     inkscape:zoom="2.91"
     inkscape:cx="150"
     inkscape:cy="150"
     inkscape:window-width="2560"
     inkscape:window-height="1377"
     inkscape:window-x="4472"
     inkscape:window-y="-8"
     inkscape:window-maximized="1"
     inkscape:current-layer="g8" /><g
     id="g8"><path
       fill="#000000"
       d="M68.3,39.9l1.9-1.1c-1.1-1.6-2.4-2.9-4-4l-1.1,1.9c-0.2,0.3-0.5,0.4-0.8,0.2l-0.7-0.4   c-0.3-0.2-0.4-0.5-0.2-0.8l1.1-1.9c-1.7-0.8-3.5-1.3-5.5-1.5v2.2c0,0.3-0.2,0.6-0.6,0.6h-0.8c-0.3,0-0.6-0.2-0.6-0.6v-2.2   c-2,0.1-3.8,0.6-5.5,1.5l1.1,1.9c0.2,0.3,0.1,0.6-0.2,0.8l-0.7,0.4c-0.3,0.2-0.6,0.1-0.8-0.2L50,34.8c-1.6,1.1-2.9,2.4-4,4l1.9,1.1   c0.3,0.2,0.4,0.5,0.2,0.8l-0.4,0.7c-0.2,0.3-0.5,0.4-0.8,0.2L45,40.5c-0.8,1.7-1.3,3.5-1.5,5.5h2.2c0.3,0,0.6,0.2,0.6,0.6v0.8   c0,0.3-0.2,0.6-0.6,0.6h-2.2c0.1,2,0.6,3.8,1.5,5.5l1.9-1.1c0.3-0.2,0.6-0.1,0.8,0.2l0.4,0.7c0.2,0.3,0.1,0.6-0.2,0.8L46,55   c1.1,1.6,2.4,2.9,4,4l1.1-1.9c0.2-0.3,0.5-0.4,0.8-0.2l0.7,0.4c0.3,0.2,0.4,0.5,0.2,0.8L51.7,60c1.7,0.8,3.5,1.3,5.5,1.5v-2.2   c0-0.3,0.2-0.6,0.6-0.6h0.8c0.3,0,0.6,0.2,0.6,0.6v2.2c2-0.1,3.8-0.6,5.5-1.5l-1.1-1.9c-0.2-0.3-0.1-0.6,0.2-0.8l0.7-0.4   c0.3-0.2,0.6-0.1,0.8,0.2l1.1,1.9c1.6-1.1,2.9-2.4,4-4l-1.9-1.1c-0.3-0.2-0.4-0.5-0.2-0.8l0.4-0.7c0.2-0.3,0.5-0.4,0.8-0.2l1.9,1.1   c0.8-1.7,1.3-3.5,1.5-5.5h-2.2c-0.3,0-0.6-0.2-0.6-0.6v-0.8c0-0.3,0.2-0.6,0.6-0.6h2.2c-0.1-2-0.6-3.8-1.5-5.5l-1.9,1.1   c-0.3,0.2-0.6,0.1-0.8-0.2l-0.4-0.7C67.9,40.4,68,40.1,68.3,39.9z M58.1,55c-4.5,0-8.1-3.6-8.1-8.1c0-4.5,3.6-8.1,8.1-8.1   s8.1,3.6,8.1,8.1C66.2,51.4,62.6,55,58.1,55z"
       id="path2"
       style="fill:#b8add2;fill-opacity:1" /><path
       fill="#000000"
       d="M81.4,14.3H18.6c-0.6,0-1.1,0.5-1.1,1.1v61.8c0,0.6,0.5,1.1,1.1,1.1h62.9c0.6,0,1.1-0.5,1.1-1.1v-4.9h-0.9   c-0.4,0-0.8-0.4-0.8-0.8V60.4c0-0.4,0.4-0.8,0.8-0.8h0.9V33.9h-0.9c-0.4,0-0.8-0.4-0.8-0.8V21.9c0-0.4,0.4-0.8,0.8-0.8h0.9v-5.6   C82.6,14.8,82.1,14.3,81.4,14.3z M31.3,43.2v15.6c0,1.8-1.2,3.3-2.8,3.3c-1.5,0-2.8-1.5-2.8-3.3V43.2c-2.2-1-3.8-3.3-3.8-6   c0-3.6,2.9-6.6,6.6-6.6c3.6,0,6.6,2.9,6.6,6.6C35.1,39.9,33.6,42.2,31.3,43.2z M58.1,63.9c-9.4,0-17-7.6-17-17c0-9.4,7.6-17,17-17   c9.4,0,17,7.6,17,17C75.2,56.3,67.5,63.9,58.1,63.9z"
       id="path4"
       style="fill:#b8add2;fill-opacity:1" /><path
       fill="#000000"
       d="M89.3,5H10.7C9.2,5,7.9,6.3,7.9,7.8V87v2.1v4.3c0,0.9,0.7,1.6,1.6,1.6h9c0.9,0,1.6-0.7,1.6-1.6v-4.3h60v4.3   c0,0.9,0.7,1.6,1.6,1.6h9c0.9,0,1.6-0.7,1.6-1.6v-4.3V87V7.8C92.1,6.3,90.8,5,89.3,5z M86.9,33c0,0.4-0.4,0.8-0.8,0.8h-0.9v25.7   h0.9c0.4,0,0.8,0.4,0.8,0.8v11.2c0,0.4-0.4,0.8-0.8,0.8h-0.9v4.9c0,2.1-1.7,3.7-3.7,3.7H18.6c-2.1,0-3.7-1.7-3.7-3.7V15.5   c0-2.1,1.7-3.7,3.7-3.7h62.9c2.1,0,3.7,1.7,3.7,3.7v5.6h0.9c0.4,0,0.8,0.4,0.8,0.8V33z"
       id="path6"
       style="fill:#b8add2;fill-opacity:1" /></g></svg>
